HIERARCHY
ROOT root
{
	OFFSET	0	13.1	24.9
	CHANNELS 6  Xposition Yposition Zposition Xrotation Yrotation Zrotation
	JOINT spine_1
	{
		OFFSET	0	9.99999	0
		CHANNELS 3  Xrotation Yrotation Zrotation
		JOINT spine_2
		{
			OFFSET	0	112	-10
			CHANNELS 3  Xrotation Yrotation Zrotation
			JOINT spine_3
			{
				OFFSET	0	206.5	19.3
				CHANNELS 3  Xrotation Yrotation Zrotation
				JOINT spine_4
				{
					OFFSET	0	110.4	14.6
					CHANNELS 3  Xrotation Yrotation Zrotation
					JOINT neck_1
					{
						OFFSET	0	71.8	-50.3
						CHANNELS 3  Xrotation Yrotation Zrotation
						JOINT neck_2
						{
							OFFSET	0	86.2	-25.8
							CHANNELS 3  Xrotation Yrotation Zrotation
							JOINT head_ee
							{
								OFFSET	0	179.8	-8.7
								CHANNELS 3  Xrotation Yrotation Zrotation
								End Site
								{
									OFFSET	1	0	0
								}
							}
						}
					}
					JOINT left_clavicle
					{
						OFFSET	-43.2	22.4	-70.8
						CHANNELS 3  Xrotation Yrotation Zrotation
						JOINT left_shoulder
						{
							OFFSET	-93.9	-5.79999	48.7
							CHANNELS 3  Xrotation Yrotation Zrotation
							JOINT left_elbow
							{
								OFFSET	-291.4	-30.8	15.2
								CHANNELS 3  Xrotation Yrotation Zrotation
								JOINT left_lowarm_twist
								{
									OFFSET	-110.7	-3.89999	13.6
									CHANNELS 3  Xrotation Yrotation Zrotation
									JOINT left_hand
									{
										OFFSET	-110.7	-3.89999	13.6
										CHANNELS 3  Xrotation Yrotation Zrotation
										JOINT left_ee
										{
											OFFSET	-80.8	-5.10001	12.1
											CHANNELS 3  Xrotation Yrotation Zrotation
											End Site
											{
												OFFSET	1	0	0
											}
										}
									}
								}
							}
						}
					}
					JOINT right_clavicle
					{
						OFFSET	43.2	22.4	-70.8
						CHANNELS 3  Xrotation Yrotation Zrotation
						JOINT right_shoulder
						{
							OFFSET	93.9	-5.79999	48.7
							CHANNELS 3  Xrotation Yrotation Zrotation
							JOINT right_elbow
							{
								OFFSET	291.4	-30.8	15.2
								CHANNELS 3  Xrotation Yrotation Zrotation
								JOINT right_lowarm_twist
								{
									OFFSET	110.7	-3.89999	13.6
									CHANNELS 3  Xrotation Yrotation Zrotation
									JOINT right_hand
									{
										OFFSET	110.7	-3.89999	13.6
										CHANNELS 3  Xrotation Yrotation Zrotation
										JOINT right_ee
										{
											OFFSET	80.8	-5.10001	12.1
											CHANNELS 3  Xrotation Yrotation Zrotation
											End Site
											{
												OFFSET	1	0	0
											}
										}
									}
								}
							}
						}
					}
				}
			}
		}
	}
	JOINT left_hip
	{
		OFFSET	-82.8	-127.5	0.300001
		CHANNELS 3  Xrotation Yrotation Zrotation
		JOINT left_knee
		{
			OFFSET	-28.2	-396.7	2.2
			CHANNELS 3  Xrotation Yrotation Zrotation
			JOINT left_ankle
			{
				OFFSET	-11.7	-411.3	35.4
				CHANNELS 3  Xrotation Yrotation Zrotation
				JOINT left_toes
				{
					OFFSET	0	-60	-88.6
					CHANNELS 3  Xrotation Yrotation Zrotation
					JOINT left_foot_ee
					{
						OFFSET	-22.5	-16.5	-42.2
						CHANNELS 3  Xrotation Yrotation Zrotation
						End Site
						{
							OFFSET	1	0	0
						}
					}
				}
			}
		}
	}
	JOINT right_hip
	{
		OFFSET	82.8	-127.5	0.300001
		CHANNELS 3  Xrotation Yrotation Zrotation
		JOINT right_knee
		{
			OFFSET	28.2	-396.7	2.2
			CHANNELS 3  Xrotation Yrotation Zrotation
			JOINT right_ankle
			{
				OFFSET	11.7	-411.3	35.4
				CHANNELS 3  Xrotation Yrotation Zrotation
				JOINT right_toes
				{
					OFFSET	0	-60	-88.6
					CHANNELS 3  Xrotation Yrotation Zrotation
					JOINT right_foot_ee
					{
						OFFSET	22.5	-16.5	-42.2
						CHANNELS 3  Xrotation Yrotation Zrotation
						End Site
						{
							OFFSET	1	0	0
						}
					}
				}
			}
		}
	}
}
MOTION
Frames: 5
Frame Time: 0.02
1376.55 694.646 -484.448 149.574 -72.7644 155.114 -2.57434 -0.463329 -2.28971 -2.57148 -0.31673 -2.31453 -2.55493 0.280531 -2.3192 -2.56243 -0.0891601 -2.33439 -20.0627 2.32408 6.11466 -19.9593 1.38067 6.64718 -0.0 0.0 -0.0 2.90757 2.87097 5.79248 21.4786 -6.18377 67.7342 3.62246 -60.8548 2.12808 -4.90647 -0.198499 0.594752 -1.87073 -2.16118 -13.596 -0.0 0.0 -0.0 6.23498 14.2297 -11.5362 -24.7108 17.3341 -67.6373 0.48903 13.6178 -0.0583908 54.5518 1.3136 6.58326 -0.175227 -11.2115 -3.51502 0.0 0.0 0.0 -19.4851 43.1673 -6.41464 -9.38028 0.271095 1.41245 41.3827 -1.46728 -5.0049 0.556195 -0.0 -0.0 -0.0 0.0 -0.0 23.8144 17.7168 -14.6449 -6.03846 -0.201105 -0.904478 39.2271 -9.5537 4.80493 -0.134834 0.0 0.0 0.0 0.0 0.0 
1391.25 695.239 -480.378 149.477 -72.8344 154.508 -2.71659 -0.452586 -2.34988 -2.71357 -0.302183 -2.3739 -2.69702 0.315566 -2.37216 -2.70486 -0.0629216 -2.39222 -19.6918 2.15612 5.20114 -19.6178 1.48505 5.71885 -0.0 0.0 -0.0 2.84595 2.40872 5.64663 19.4169 -6.18499 68.699 3.58809 -60.6222 2.0981 -5.12511 -0.208526 0.620847 -1.74948 -2.26564 -12.8077 -0.0 0.0 -0.0 6.19886 14.6528 -11.4315 -23.6117 17.8864 -67.2697 0.477267 13.302 -0.0556526 54.5707 1.31511 6.58516 -0.190385 -11.2078 -3.41694 0.0 0.0 0.0 -20.1444 43.0851 -6.30893 -10.2136 0.283923 1.53968 39.9465 -2.86331 -4.89851 1.45427 -0.0 -0.0 -0.0 0.0 -0.0 23.6356 18.4063 -13.9018 -6.62969 -0.215644 -0.994044 39.2978 -9.09434 4.80838 0.186222 -0.0 -0.0 0.0 0.0 0.0 
1410.88 696.712 -473.593 148.47 -73.6263 152.296 -2.70217 -0.419222 -2.17003 -2.69959 -0.280321 -2.1923 -2.68544 0.289756 -2.19107 -2.69213 -0.0598322 -2.20933 -19.5985 2.24009 5.38582 -19.5193 1.54292 5.92201 -0.0 0.0 -0.0 1.73435 2.54607 3.56343 17.0075 -7.71029 70.7104 3.52409 -60.1798 2.04244 -5.13499 -0.208982 0.622026 -1.78087 -2.27638 -13.0288 -0.0 0.0 -0.0 6.14576 14.0653 -11.3557 -21.8642 18.5318 -66.9468 0.508562 14.1403 -0.0630762 54.8652 1.3387 6.6146 -0.201395 -11.2589 -3.36776 0.0 0.0 0.0 -19.7808 42.8245 -6.56997 -11.2366 0.297137 1.69608 39.7669 -3.45778 -4.89024 1.89167 -0.0 -0.0 -0.0 0.0 -0.0 23.248 18.7409 -13.2083 -8.18859 -0.249539 -1.23086 39.3145 -9.11437 4.80998 0.435627 -0.0 -0.0 0.0 0.0 0.0 
1429.38 697.527 -468.508 147.463 -73.5961 150.888 -2.74193 -0.437242 -2.08259 -2.73957 -0.303865 -2.10618 -2.72516 0.246405 -2.11367 -2.73138 -0.0904238 -2.12606 -19.7188 2.09821 5.02549 -19.6499 1.46609 5.53274 -0.0 0.0 -0.0 2.08297 2.18309 4.19012 15.176 -6.55103 70.9822 3.48758 -59.9221 2.01081 -4.85242 -0.196036 0.588295 -1.76005 -2.24358 -12.8704 -0.0 0.0 -0.0 6.16005 14.7777 -11.3401 -20.9697 18.8716 -66.8977 0.508024 14.1259 -0.0629447 54.9044 1.34186 6.61851 -0.218225 -11.2906 -3.27364 0.0 0.0 0.0 -20.6267 43.0006 -5.36949 -11.7141 0.302349 1.76917 39.6261 -2.50501 -4.86677 2.24076 -0.0 -0.0 -0.0 0.0 -0.0 22.0708 19.2974 -12.8313 -9.91369 -0.279519 -1.49387 39.4206 -8.85687 4.81793 0.607685 -0.0 -0.0 0.0 0.0 0.0 
1449.12 699.87 -463.055 146.932 -73.748 149.89 -2.8975 -0.514697 -2.09251 -2.89514 -0.380533 -2.12101 -2.87755 0.181767 -2.14718 -2.88395 -0.159541 -2.14895 -19.4723 1.97579 4.7797 -19.4097 1.33472 5.248 -0.0 0.0 -0.0 1.39879 1.97134 2.87938 12.6401 -6.69846 72.7194 3.3638 -59.0173 1.90419 -4.78937 -0.19317 0.580761 -1.69526 -2.18968 -12.4 -0.0 0.0 -0.0 6.29955 14.8424 -11.6351 -19.9301 19.1591 -67.0504 0.501184 13.9432 -0.061286 54.9349 1.34431 6.62155 -0.251212 -11.3516 -3.08882 0.0 0.0 0.0 -21.2777 42.898 -4.32808 -12.2669 0.307621 1.85382 39.3597 -2.67123 -4.84546 2.29026 -0.0 -0.0 -0.0 0.0 -0.0 21.1028 19.5252 -12.3366 -10.8884 -0.292954 -1.64283 39.4451 -8.79874 4.81977 0.632568 -0.0 -0.0 0.0 0.0 0.0 
